# xmcd
#
# Track frame offsets: 
#        150
#        20587
#        39122
#        61787
#        82196
#        102131
#        115511
#        138542
#        157465
#        174769
#        192471
#
# Disc length: 2786 seconds
#
# Revision: 0
# Processed by: cddbd v1.5.1PL0 Copyright (c) Steve Scherf et al.
# Submitted via: ExactAudioCopy v0.95a5
#
DISCID=8b0ae00b
DTITLE=郭凌霞 - 穿过海的声音 Disc 1
DYEAR=1900
DGENRE=R&B
TTITLE0=COS
TTITLE1=穿过海的声音
TTITLE2=感觉特别 feat.胡彦斌
TTITLE3=粉红色的心情 feat.黑棒
TTITLE4=流星
TTITLE5=转
TTITLE6=第七颗流星
TTITLE7=口是心非
TTITLE8=六十六个梦
TTITLE9=忘了他
TTITLE10=新鲜感
EXTD=
EXTT0=
EXTT1=
EXTT2=
EXTT3=
EXTT4=
EXTT5=
EXTT6=
EXTT7=
EXTT8=
EXTT9=
EXTT10=
PLAYORDER=
